<mxfile host="drawio-plugin" modified="2021-08-19T01:14:30.001Z" agent="5.0 (Macintosh; Intel Mac OS X 11_2_3) AppleWebKit/537.36 (KHTML, like Gecko) Chrome/87.0.4280.141 Safari/537.36" etag="rQKC5OdBgyju7xlxqOIh" version="14.7.4" type="embed" pages="3"><diagram id="23iRSUPoRavnBvh4doch" name="系统架构"><mxGraphModel dx="1027" dy="785" grid="1" gridSize="10" guides="1" tooltips="1" connect="1" arrows="1" fold="1" page="1" pageScale="1" pageWidth="827" pageHeight="1169" math="0" shadow="0"><root><mxCell id="0"/><mxCell id="1" parent="0"/></root></mxGraphModel></diagram><diagram id="_uRrKCVHTvgo77BI0__4" name="写入原理"><mxGraphModel dx="1877" dy="785" grid="1" gridSize="10" guides="1" tooltips="1" connect="1" arrows="1" fold="1" page="1" pageScale="1" pageWidth="850" pageHeight="1100" math="0" shadow="0"><root><mxCell id="kAMN1V5U5sNBwgowRGp8-0"/><mxCell id="kAMN1V5U5sNBwgowRGp8-1" parent="kAMN1V5U5sNBwgowRGp8-0"/><mxCell id="u7qAn0A-TmPdgvw9wgXv-0" value="Client" style="ellipse;html=1;shape=startState;fillColor=#000000;strokeColor=#ff0000;" parent="kAMN1V5U5sNBwgowRGp8-1" vertex="1"><mxGeometry x="410" y="100" width="30" height="30" as="geometry"/></mxCell><mxCell id="u7qAn0A-TmPdgvw9wgXv-1" value="" style="edgeStyle=orthogonalEdgeStyle;html=1;verticalAlign=bottom;endArrow=open;endSize=8;strokeColor=#ff0000;" parent="kAMN1V5U5sNBwgowRGp8-1" source="u7qAn0A-TmPdgvw9wgXv-0" edge="1"><mxGeometry relative="1" as="geometry"><mxPoint x="425" y="190" as="targetPoint"/></mxGeometry></mxCell><mxCell id="u7qAn0A-TmPdgvw9wgXv-17" value="1. 构建" style="edgeLabel;html=1;align=center;verticalAlign=middle;resizable=0;points=[];" parent="u7qAn0A-TmPdgvw9wgXv-1" vertex="1" connectable="0"><mxGeometry x="-0.2333" relative="1" as="geometry"><mxPoint as="offset"/></mxGeometry></mxCell><mxCell id="u7qAn0A-TmPdgvw9wgXv-6" style="edgeStyle=none;rounded=0;orthogonalLoop=1;jettySize=auto;html=1;entryX=0.5;entryY=0;entryDx=0;entryDy=0;" parent="kAMN1V5U5sNBwgowRGp8-1" source="u7qAn0A-TmPdgvw9wgXv-2" target="u7qAn0A-TmPdgvw9wgXv-3" edge="1"><mxGeometry relative="1" as="geometry"/></mxCell><mxCell id="u7qAn0A-TmPdgvw9wgXv-7" style="edgeStyle=none;rounded=0;orthogonalLoop=1;jettySize=auto;html=1;" parent="kAMN1V5U5sNBwgowRGp8-1" source="u7qAn0A-TmPdgvw9wgXv-2" target="u7qAn0A-TmPdgvw9wgXv-4" edge="1"><mxGeometry relative="1" as="geometry"/></mxCell><mxCell id="u7qAn0A-TmPdgvw9wgXv-8" style="edgeStyle=none;rounded=0;orthogonalLoop=1;jettySize=auto;html=1;entryX=0.5;entryY=0;entryDx=0;entryDy=0;" parent="kAMN1V5U5sNBwgowRGp8-1" source="u7qAn0A-TmPdgvw9wgXv-2" target="u7qAn0A-TmPdgvw9wgXv-5" edge="1"><mxGeometry relative="1" as="geometry"/></mxCell><mxCell id="u7qAn0A-TmPdgvw9wgXv-16" style="edgeStyle=orthogonalEdgeStyle;curved=1;rounded=0;orthogonalLoop=1;jettySize=auto;html=1;entryX=0.5;entryY=0;entryDx=0;entryDy=0;" parent="kAMN1V5U5sNBwgowRGp8-1" source="u7qAn0A-TmPdgvw9wgXv-2" target="u7qAn0A-TmPdgvw9wgXv-15" edge="1"><mxGeometry relative="1" as="geometry"/></mxCell><mxCell id="u7qAn0A-TmPdgvw9wgXv-18" value="3. 数据分组" style="edgeLabel;html=1;align=center;verticalAlign=middle;resizable=0;points=[];" parent="u7qAn0A-TmPdgvw9wgXv-16" vertex="1" connectable="0"><mxGeometry x="0.56" relative="1" as="geometry"><mxPoint as="offset"/></mxGeometry></mxCell><mxCell id="u7qAn0A-TmPdgvw9wgXv-2" value="构建Put对象" style="html=1;" parent="kAMN1V5U5sNBwgowRGp8-1" vertex="1"><mxGeometry x="370" y="190" width="110" height="50" as="geometry"/></mxCell><mxCell id="u7qAn0A-TmPdgvw9wgXv-9" style="edgeStyle=orthogonalEdgeStyle;rounded=0;orthogonalLoop=1;jettySize=auto;html=1;entryX=0;entryY=0.5;entryDx=0;entryDy=0;curved=1;dashed=1;" parent="kAMN1V5U5sNBwgowRGp8-1" source="u7qAn0A-TmPdgvw9wgXv-3" target="u7qAn0A-TmPdgvw9wgXv-2" edge="1"><mxGeometry relative="1" as="geometry"><Array as="points"><mxPoint x="205" y="215"/></Array></mxGeometry></mxCell><mxCell id="u7qAn0A-TmPdgvw9wgXv-10" value="2.1 read meta region location" style="edgeLabel;html=1;align=center;verticalAlign=middle;resizable=0;points=[];" parent="u7qAn0A-TmPdgvw9wgXv-9" vertex="1" connectable="0"><mxGeometry x="-0.0308" y="-25" relative="1" as="geometry"><mxPoint as="offset"/></mxGeometry></mxCell><mxCell id="u7qAn0A-TmPdgvw9wgXv-3" value="ZK" style="html=1;" parent="kAMN1V5U5sNBwgowRGp8-1" vertex="1"><mxGeometry x="150" y="310" width="110" height="50" as="geometry"/></mxCell><mxCell id="u7qAn0A-TmPdgvw9wgXv-11" style="edgeStyle=orthogonalEdgeStyle;curved=1;rounded=0;orthogonalLoop=1;jettySize=auto;html=1;entryX=0.5;entryY=1;entryDx=0;entryDy=0;dashed=1;exitX=0.5;exitY=0;exitDx=0;exitDy=0;" parent="kAMN1V5U5sNBwgowRGp8-1" source="u7qAn0A-TmPdgvw9wgXv-4" target="u7qAn0A-TmPdgvw9wgXv-2" edge="1"><mxGeometry relative="1" as="geometry"><Array as="points"><mxPoint x="450" y="310"/><mxPoint x="450" y="240"/></Array></mxGeometry></mxCell><mxCell id="u7qAn0A-TmPdgvw9wgXv-12" value="2.2 location user region from meta region" style="edgeLabel;html=1;align=center;verticalAlign=middle;resizable=0;points=[];" parent="u7qAn0A-TmPdgvw9wgXv-11" vertex="1" connectable="0"><mxGeometry x="-0.0167" y="4" relative="1" as="geometry"><mxPoint as="offset"/></mxGeometry></mxCell><mxCell id="u7qAn0A-TmPdgvw9wgXv-4" value="RegionServer&lt;br&gt;meta region" style="html=1;" parent="kAMN1V5U5sNBwgowRGp8-1" vertex="1"><mxGeometry x="370" y="310" width="110" height="50" as="geometry"/></mxCell><mxCell id="u7qAn0A-TmPdgvw9wgXv-13" style="edgeStyle=orthogonalEdgeStyle;curved=1;rounded=0;orthogonalLoop=1;jettySize=auto;html=1;entryX=1;entryY=0.5;entryDx=0;entryDy=0;dashed=1;" parent="kAMN1V5U5sNBwgowRGp8-1" source="u7qAn0A-TmPdgvw9wgXv-5" target="u7qAn0A-TmPdgvw9wgXv-2" edge="1"><mxGeometry relative="1" as="geometry"><Array as="points"><mxPoint x="645" y="215"/></Array></mxGeometry></mxCell><mxCell id="u7qAn0A-TmPdgvw9wgXv-14" value="2.3 read/write from user region" style="edgeLabel;html=1;align=center;verticalAlign=middle;resizable=0;points=[];" parent="u7qAn0A-TmPdgvw9wgXv-13" vertex="1" connectable="0"><mxGeometry x="0.2462" y="13" relative="1" as="geometry"><mxPoint as="offset"/></mxGeometry></mxCell><mxCell id="u7qAn0A-TmPdgvw9wgXv-5" value="RegionServer&lt;br&gt;user region" style="html=1;" parent="kAMN1V5U5sNBwgowRGp8-1" vertex="1"><mxGeometry x="590" y="310" width="110" height="50" as="geometry"/></mxCell><mxCell id="u7qAn0A-TmPdgvw9wgXv-20" value="" style="edgeStyle=orthogonalEdgeStyle;curved=1;rounded=0;orthogonalLoop=1;jettySize=auto;html=1;" parent="kAMN1V5U5sNBwgowRGp8-1" source="u7qAn0A-TmPdgvw9wgXv-15" target="u7qAn0A-TmPdgvw9wgXv-19" edge="1"><mxGeometry relative="1" as="geometry"/></mxCell><mxCell id="u7qAn0A-TmPdgvw9wgXv-24" style="edgeStyle=orthogonalEdgeStyle;curved=1;rounded=0;orthogonalLoop=1;jettySize=auto;html=1;entryX=0.5;entryY=0;entryDx=0;entryDy=0;" parent="kAMN1V5U5sNBwgowRGp8-1" source="u7qAn0A-TmPdgvw9wgXv-15" target="u7qAn0A-TmPdgvw9wgXv-23" edge="1"><mxGeometry relative="1" as="geometry"/></mxCell><mxCell id="u7qAn0A-TmPdgvw9wgXv-25" value="4. RPC 请求写入" style="edgeLabel;html=1;align=center;verticalAlign=middle;resizable=0;points=[];" parent="u7qAn0A-TmPdgvw9wgXv-24" vertex="1" connectable="0"><mxGeometry x="0.05" y="2" relative="1" as="geometry"><mxPoint as="offset"/></mxGeometry></mxCell><mxCell id="u7qAn0A-TmPdgvw9wgXv-15" value="Client数据分组&quot;打包&quot;" style="html=1;" parent="kAMN1V5U5sNBwgowRGp8-1" vertex="1"><mxGeometry x="370" y="440" width="110" height="50" as="geometry"/></mxCell><mxCell id="u7qAn0A-TmPdgvw9wgXv-22" value="" style="edgeStyle=orthogonalEdgeStyle;curved=1;rounded=0;orthogonalLoop=1;jettySize=auto;html=1;" parent="kAMN1V5U5sNBwgowRGp8-1" source="u7qAn0A-TmPdgvw9wgXv-19" target="u7qAn0A-TmPdgvw9wgXv-21" edge="1"><mxGeometry relative="1" as="geometry"/></mxCell><mxCell id="u7qAn0A-TmPdgvw9wgXv-19" value="按Region分组" style="shape=process;whiteSpace=wrap;html=1;backgroundOutline=1;" parent="kAMN1V5U5sNBwgowRGp8-1" vertex="1"><mxGeometry x="555" y="435" width="120" height="60" as="geometry"/></mxCell><mxCell id="u7qAn0A-TmPdgvw9wgXv-21" value="按RegionServer&lt;br&gt;&quot;打包&quot;" style="shape=process;whiteSpace=wrap;html=1;backgroundOutline=1;" parent="kAMN1V5U5sNBwgowRGp8-1" vertex="1"><mxGeometry x="755" y="435" width="120" height="60" as="geometry"/></mxCell><mxCell id="u7qAn0A-TmPdgvw9wgXv-27" style="edgeStyle=orthogonalEdgeStyle;rounded=0;orthogonalLoop=1;jettySize=auto;html=1;" parent="kAMN1V5U5sNBwgowRGp8-1" source="u7qAn0A-TmPdgvw9wgXv-23" target="u7qAn0A-TmPdgvw9wgXv-26" edge="1"><mxGeometry relative="1" as="geometry"/></mxCell><mxCell id="u7qAn0A-TmPdgvw9wgXv-29" value="5. 顺序写入WAL日志文件" style="edgeLabel;html=1;align=center;verticalAlign=middle;resizable=0;points=[];" parent="u7qAn0A-TmPdgvw9wgXv-27" vertex="1" connectable="0"><mxGeometry x="0.584" y="-1" relative="1" as="geometry"><mxPoint as="offset"/></mxGeometry></mxCell><mxCell id="u7qAn0A-TmPdgvw9wgXv-31" style="edgeStyle=orthogonalEdgeStyle;rounded=0;orthogonalLoop=1;jettySize=auto;html=1;entryX=0.5;entryY=0;entryDx=0;entryDy=0;" parent="kAMN1V5U5sNBwgowRGp8-1" source="u7qAn0A-TmPdgvw9wgXv-23" target="u7qAn0A-TmPdgvw9wgXv-30" edge="1"><mxGeometry relative="1" as="geometry"/></mxCell><mxCell id="u7qAn0A-TmPdgvw9wgXv-32" value="6. 写入到内存中" style="edgeLabel;html=1;align=center;verticalAlign=middle;resizable=0;points=[];" parent="u7qAn0A-TmPdgvw9wgXv-31" vertex="1" connectable="0"><mxGeometry x="-0.293" y="-3" relative="1" as="geometry"><mxPoint as="offset"/></mxGeometry></mxCell><mxCell id="u7qAn0A-TmPdgvw9wgXv-23" value="RegionServer" style="html=1;" parent="kAMN1V5U5sNBwgowRGp8-1" vertex="1"><mxGeometry x="370" y="570" width="110" height="50" as="geometry"/></mxCell><mxCell id="u7qAn0A-TmPdgvw9wgXv-43" style="edgeStyle=orthogonalEdgeStyle;rounded=0;orthogonalLoop=1;jettySize=auto;html=1;" parent="kAMN1V5U5sNBwgowRGp8-1" source="u7qAn0A-TmPdgvw9wgXv-26" target="u7qAn0A-TmPdgvw9wgXv-42" edge="1"><mxGeometry relative="1" as="geometry"/></mxCell><mxCell id="u7qAn0A-TmPdgvw9wgXv-44" value="6.2 关联的region被 flushed 进行wal归档" style="edgeLabel;html=1;align=center;verticalAlign=middle;resizable=0;points=[];" parent="u7qAn0A-TmPdgvw9wgXv-43" vertex="1" connectable="0"><mxGeometry x="-0.2571" y="2" relative="1" as="geometry"><mxPoint x="-2" y="8" as="offset"/></mxGeometry></mxCell><mxCell id="u7qAn0A-TmPdgvw9wgXv-26" value="WAL" style="html=1;verticalAlign=top;" parent="kAMN1V5U5sNBwgowRGp8-1" vertex="1"><mxGeometry x="120" y="870" width="170" height="130" as="geometry"/></mxCell><mxCell id="u7qAn0A-TmPdgvw9wgXv-61" value="" style="edgeStyle=orthogonalEdgeStyle;rounded=0;orthogonalLoop=1;jettySize=auto;html=1;" parent="kAMN1V5U5sNBwgowRGp8-1" source="u7qAn0A-TmPdgvw9wgXv-30" target="u7qAn0A-TmPdgvw9wgXv-60" edge="1"><mxGeometry relative="1" as="geometry"/></mxCell><mxCell id="u7qAn0A-TmPdgvw9wgXv-62" value="6.3 segment 超过阀值进行持久化至HFile中" style="edgeLabel;html=1;align=center;verticalAlign=middle;resizable=0;points=[];" parent="u7qAn0A-TmPdgvw9wgXv-61" vertex="1" connectable="0"><mxGeometry x="-0.2" y="2" relative="1" as="geometry"><mxPoint as="offset"/></mxGeometry></mxCell><mxCell id="u7qAn0A-TmPdgvw9wgXv-30" value="MemStore" style="html=1;verticalAlign=top;" parent="kAMN1V5U5sNBwgowRGp8-1" vertex="1"><mxGeometry x="560" y="660" width="170" height="110" as="geometry"/></mxCell><mxCell id="u7qAn0A-TmPdgvw9wgXv-35" value="&lt;font style=&quot;font-size: 12px&quot;&gt;Wal Roll and Archive 操作：&lt;br&gt;&lt;br&gt;&lt;/font&gt;&lt;ul class=&quot;itemizedlist&quot; style=&quot;box-sizing: border-box ; margin-bottom: 0px ; margin-top: 0px ; font-family: &amp;#34;inter&amp;#34; , sans-serif ; padding-left: 2em ; color: rgb(33 , 37 , 41) ; background-color: rgb(255 , 255 , 255)&quot;&gt;&lt;li class=&quot;listitem&quot; style=&quot;box-sizing: border-box ; padding: 0.15em 1em 0.15em 0px ; list-style: inherit&quot;&gt;Wal 文件超过阀值new新Wal接收写入并且close旧的文件。&lt;/li&gt;&lt;li class=&quot;listitem&quot; style=&quot;box-sizing: border-box ; padding: 0.15em 1em 0.15em 0px ; list-style: inherit&quot;&gt;如果Wal关联region数据持久化了，这个Wal文件进行归档。&lt;/li&gt;&lt;/ul&gt;" style="shape=document;whiteSpace=wrap;html=1;boundedLbl=1;size=0.125;align=left;verticalAlign=top;" parent="kAMN1V5U5sNBwgowRGp8-1" vertex="1"><mxGeometry x="-180" y="850" width="220" height="140" as="geometry"/></mxCell><mxCell id="u7qAn0A-TmPdgvw9wgXv-36" value="&lt;font style=&quot;font-size: 12px&quot;&gt;内存 Flush操作：&lt;br&gt;&lt;br&gt;&lt;/font&gt;&lt;ul class=&quot;itemizedlist&quot; style=&quot;box-sizing: border-box ; margin-bottom: 0px ; margin-top: 0px ; font-family: &amp;#34;inter&amp;#34; , sans-serif ; padding-left: 2em ; color: rgb(33 , 37 , 41) ; background-color: rgb(255 , 255 , 255)&quot;&gt;&lt;li class=&quot;listitem&quot; style=&quot;box-sizing: border-box ; padding: 0.15em 1em 0.15em 0px ; list-style: inherit&quot;&gt;new Active Segment内存块，标记原块为immutable类型。&lt;/li&gt;&lt;li class=&quot;listitem&quot; style=&quot;box-sizing: border-box ; padding: 0.15em 1em 0.15em 0px ; list-style: inherit&quot;&gt;多个immutable 在内存中进行compaction&lt;/li&gt;&lt;li class=&quot;listitem&quot; style=&quot;box-sizing: border-box ; padding: 0.15em 1em 0.15em 0px ; list-style: inherit&quot;&gt;segment 达到阀值被持久化至HDFS中的HFIle文件中，此时Wal进行Archive归档。&lt;/li&gt;&lt;/ul&gt;" style="shape=document;whiteSpace=wrap;html=1;boundedLbl=1;size=0.125;align=left;verticalAlign=top;" parent="kAMN1V5U5sNBwgowRGp8-1" vertex="1"><mxGeometry x="830" y="620" width="220" height="165" as="geometry"/></mxCell><mxCell id="u7qAn0A-TmPdgvw9wgXv-37" value="" style="endArrow=none;html=1;" parent="kAMN1V5U5sNBwgowRGp8-1" edge="1"><mxGeometry width="50" height="50" relative="1" as="geometry"><mxPoint x="-160" y="820" as="sourcePoint"/><mxPoint x="1090" y="820" as="targetPoint"/></mxGeometry></mxCell><mxCell id="u7qAn0A-TmPdgvw9wgXv-38" value="内存" style="text;html=1;align=center;verticalAlign=middle;resizable=0;points=[];autosize=1;strokeColor=none;" parent="kAMN1V5U5sNBwgowRGp8-1" vertex="1"><mxGeometry x="1000" y="790" width="40" height="20" as="geometry"/></mxCell><mxCell id="u7qAn0A-TmPdgvw9wgXv-39" value="磁盘" style="text;html=1;align=center;verticalAlign=middle;resizable=0;points=[];autosize=1;strokeColor=none;" parent="kAMN1V5U5sNBwgowRGp8-1" vertex="1"><mxGeometry x="1000" y="840" width="40" height="20" as="geometry"/></mxCell><mxCell id="u7qAn0A-TmPdgvw9wgXv-42" value="磁盘 Wal" style="verticalLabelPosition=bottom;verticalAlign=top;html=1;shape=mxgraph.basic.layered_rect;dx=10;outlineConnect=0;" parent="kAMN1V5U5sNBwgowRGp8-1" vertex="1"><mxGeometry x="135" y="1060" width="140" height="40" as="geometry"/></mxCell><mxCell id="u7qAn0A-TmPdgvw9wgXv-45" value="Active Segement" style="rounded=0;whiteSpace=wrap;html=1;verticalAlign=middle;fillColor=#008a00;strokeColor=#005700;fontColor=#ffffff;" parent="kAMN1V5U5sNBwgowRGp8-1" vertex="1"><mxGeometry x="585" y="680" width="120" height="20" as="geometry"/></mxCell><mxCell id="u7qAn0A-TmPdgvw9wgXv-46" value="Immutable Segement" style="rounded=0;whiteSpace=wrap;html=1;verticalAlign=middle;fillColor=#647687;strokeColor=#314354;fontColor=#ffffff;" parent="kAMN1V5U5sNBwgowRGp8-1" vertex="1"><mxGeometry x="585" y="710" width="120" height="20" as="geometry"/></mxCell><mxCell id="u7qAn0A-TmPdgvw9wgXv-47" value="Immutable Segement" style="rounded=0;whiteSpace=wrap;html=1;verticalAlign=middle;fillColor=#647687;strokeColor=#314354;fontColor=#ffffff;" parent="kAMN1V5U5sNBwgowRGp8-1" vertex="1"><mxGeometry x="585" y="740" width="120" height="20" as="geometry"/></mxCell><mxCell id="u7qAn0A-TmPdgvw9wgXv-48" value="&amp;nbsp;WAL4" style="rounded=0;whiteSpace=wrap;html=1;verticalAlign=middle;" parent="kAMN1V5U5sNBwgowRGp8-1" vertex="1"><mxGeometry x="135" y="890" width="40" height="30" as="geometry"/></mxCell><mxCell id="u7qAn0A-TmPdgvw9wgXv-49" value="" style="endArrow=classic;html=1;entryX=0;entryY=0.5;entryDx=0;entryDy=0;" parent="kAMN1V5U5sNBwgowRGp8-1" target="u7qAn0A-TmPdgvw9wgXv-48" edge="1"><mxGeometry width="50" height="50" relative="1" as="geometry"><mxPoint x="80" y="905" as="sourcePoint"/><mxPoint x="120" y="900" as="targetPoint"/></mxGeometry></mxCell><mxCell id="u7qAn0A-TmPdgvw9wgXv-50" value="new" style="edgeLabel;html=1;align=center;verticalAlign=middle;resizable=0;points=[];" parent="u7qAn0A-TmPdgvw9wgXv-49" vertex="1" connectable="0"><mxGeometry x="-0.5273" y="4" relative="1" as="geometry"><mxPoint as="offset"/></mxGeometry></mxCell><mxCell id="u7qAn0A-TmPdgvw9wgXv-57" style="edgeStyle=orthogonalEdgeStyle;rounded=0;orthogonalLoop=1;jettySize=auto;html=1;entryX=0.5;entryY=0;entryDx=0;entryDy=0;entryPerimeter=0;" parent="kAMN1V5U5sNBwgowRGp8-1" source="u7qAn0A-TmPdgvw9wgXv-51" target="u7qAn0A-TmPdgvw9wgXv-56" edge="1"><mxGeometry relative="1" as="geometry"><Array as="points"><mxPoint x="253" y="940"/><mxPoint x="253" y="940"/></Array></mxGeometry></mxCell><mxCell id="u7qAn0A-TmPdgvw9wgXv-51" value="&amp;nbsp;WAL3" style="rounded=0;whiteSpace=wrap;html=1;verticalAlign=middle;" parent="kAMN1V5U5sNBwgowRGp8-1" vertex="1"><mxGeometry x="210" y="890" width="60" height="40" as="geometry"/></mxCell><mxCell id="u7qAn0A-TmPdgvw9wgXv-52" value="" style="endArrow=classic;html=1;entryX=1;entryY=0.5;entryDx=0;entryDy=0;" parent="kAMN1V5U5sNBwgowRGp8-1" target="u7qAn0A-TmPdgvw9wgXv-51" edge="1"><mxGeometry width="50" height="50" relative="1" as="geometry"><mxPoint x="320" y="910" as="sourcePoint"/><mxPoint x="420" y="910" as="targetPoint"/></mxGeometry></mxCell><mxCell id="u7qAn0A-TmPdgvw9wgXv-53" value="close" style="edgeLabel;html=1;align=center;verticalAlign=middle;resizable=0;points=[];" parent="u7qAn0A-TmPdgvw9wgXv-52" vertex="1" connectable="0"><mxGeometry x="-0.35" y="-3" relative="1" as="geometry"><mxPoint as="offset"/></mxGeometry></mxCell><mxCell id="u7qAn0A-TmPdgvw9wgXv-54" value="Wal1" style="strokeWidth=2;html=1;shape=mxgraph.flowchart.document2;whiteSpace=wrap;size=0.25;verticalAlign=middle;" parent="kAMN1V5U5sNBwgowRGp8-1" vertex="1"><mxGeometry x="135" y="950" width="45" height="40" as="geometry"/></mxCell><mxCell id="u7qAn0A-TmPdgvw9wgXv-55" value="Wal2" style="strokeWidth=2;html=1;shape=mxgraph.flowchart.document2;whiteSpace=wrap;size=0.25;verticalAlign=middle;" parent="kAMN1V5U5sNBwgowRGp8-1" vertex="1"><mxGeometry x="182.5" y="950" width="45" height="40" as="geometry"/></mxCell><mxCell id="u7qAn0A-TmPdgvw9wgXv-56" value="Wal3" style="strokeWidth=2;html=1;shape=mxgraph.flowchart.document2;whiteSpace=wrap;size=0.25;verticalAlign=middle;" parent="kAMN1V5U5sNBwgowRGp8-1" vertex="1"><mxGeometry x="230" y="950" width="45" height="40" as="geometry"/></mxCell><mxCell id="u7qAn0A-TmPdgvw9wgXv-58" style="edgeStyle=orthogonalEdgeStyle;rounded=0;orthogonalLoop=1;jettySize=auto;html=1;entryX=1;entryY=0.5;entryDx=0;entryDy=0;" parent="kAMN1V5U5sNBwgowRGp8-1" source="u7qAn0A-TmPdgvw9wgXv-30" target="u7qAn0A-TmPdgvw9wgXv-30" edge="1"><mxGeometry relative="1" as="geometry"/></mxCell><mxCell id="u7qAn0A-TmPdgvw9wgXv-59" value="6.1 flush" style="edgeLabel;html=1;align=center;verticalAlign=middle;resizable=0;points=[];" parent="u7qAn0A-TmPdgvw9wgXv-58" vertex="1" connectable="0"><mxGeometry x="-0.0727" y="3" relative="1" as="geometry"><mxPoint as="offset"/></mxGeometry></mxCell><mxCell id="u7qAn0A-TmPdgvw9wgXv-60" value="HFile" style="html=1;verticalAlign=top;" parent="kAMN1V5U5sNBwgowRGp8-1" vertex="1"><mxGeometry x="495" y="860" width="300" height="300" as="geometry"/></mxCell><mxCell id="u7qAn0A-TmPdgvw9wgXv-63" value="" style="rounded=0;whiteSpace=wrap;html=1;verticalAlign=middle;" parent="kAMN1V5U5sNBwgowRGp8-1" vertex="1"><mxGeometry x="514" y="900" width="260" height="60" as="geometry"/></mxCell><mxCell id="u7qAn0A-TmPdgvw9wgXv-64" value="HFile" style="rounded=0;whiteSpace=wrap;html=1;verticalAlign=middle;fillColor=#76608a;strokeColor=#432D57;fontColor=#ffffff;" parent="kAMN1V5U5sNBwgowRGp8-1" vertex="1"><mxGeometry x="534" y="915" width="60" height="30" as="geometry"/></mxCell><mxCell id="u7qAn0A-TmPdgvw9wgXv-65" value="HFile" style="rounded=0;whiteSpace=wrap;html=1;verticalAlign=middle;" parent="kAMN1V5U5sNBwgowRGp8-1" vertex="1"><mxGeometry x="614" y="915" width="60" height="30" as="geometry"/></mxCell><mxCell id="u7qAn0A-TmPdgvw9wgXv-66" value="HFile" style="rounded=0;whiteSpace=wrap;html=1;verticalAlign=middle;" parent="kAMN1V5U5sNBwgowRGp8-1" vertex="1"><mxGeometry x="699" y="915" width="60" height="30" as="geometry"/></mxCell><mxCell id="u7qAn0A-TmPdgvw9wgXv-67" value="" style="rounded=0;whiteSpace=wrap;html=1;verticalAlign=middle;" parent="kAMN1V5U5sNBwgowRGp8-1" vertex="1"><mxGeometry x="515" y="990" width="260" height="60" as="geometry"/></mxCell><mxCell id="u7qAn0A-TmPdgvw9wgXv-68" value="" style="rounded=0;whiteSpace=wrap;html=1;verticalAlign=middle;" parent="kAMN1V5U5sNBwgowRGp8-1" vertex="1"><mxGeometry x="515" y="1080" width="260" height="60" as="geometry"/></mxCell><mxCell id="u7qAn0A-TmPdgvw9wgXv-78" style="edgeStyle=orthogonalEdgeStyle;curved=1;rounded=0;orthogonalLoop=1;jettySize=auto;html=1;entryX=0.5;entryY=0;entryDx=0;entryDy=0;shadow=1;exitX=0.5;exitY=1;exitDx=0;exitDy=0;" parent="kAMN1V5U5sNBwgowRGp8-1" source="u7qAn0A-TmPdgvw9wgXv-73" target="u7qAn0A-TmPdgvw9wgXv-76" edge="1"><mxGeometry relative="1" as="geometry"/></mxCell><mxCell id="u7qAn0A-TmPdgvw9wgXv-79" value="7.2 Major" style="edgeLabel;html=1;align=center;verticalAlign=middle;resizable=0;points=[];" parent="u7qAn0A-TmPdgvw9wgXv-78" vertex="1" connectable="0"><mxGeometry x="-0.0129" relative="1" as="geometry"><mxPoint as="offset"/></mxGeometry></mxCell><mxCell id="u7qAn0A-TmPdgvw9wgXv-71" value="HFile" style="rounded=0;whiteSpace=wrap;html=1;verticalAlign=middle;fillColor=#76608a;strokeColor=#432D57;fontColor=#ffffff;" parent="kAMN1V5U5sNBwgowRGp8-1" vertex="1"><mxGeometry x="532.5" y="1005" width="147.5" height="30" as="geometry"/></mxCell><mxCell id="u7qAn0A-TmPdgvw9wgXv-73" value="HFile" style="rounded=0;whiteSpace=wrap;html=1;verticalAlign=middle;" parent="kAMN1V5U5sNBwgowRGp8-1" vertex="1"><mxGeometry x="697.5" y="1005" width="60" height="30" as="geometry"/></mxCell><mxCell id="u7qAn0A-TmPdgvw9wgXv-74" style="edgeStyle=orthogonalEdgeStyle;rounded=0;orthogonalLoop=1;jettySize=auto;html=1;entryX=0.5;entryY=0;entryDx=0;entryDy=0;elbow=vertical;curved=1;shadow=1;" parent="kAMN1V5U5sNBwgowRGp8-1" source="u7qAn0A-TmPdgvw9wgXv-65" target="u7qAn0A-TmPdgvw9wgXv-71" edge="1"><mxGeometry relative="1" as="geometry"/></mxCell><mxCell id="u7qAn0A-TmPdgvw9wgXv-75" value="7.1 Minor" style="edgeLabel;html=1;align=center;verticalAlign=middle;resizable=0;points=[];" parent="u7qAn0A-TmPdgvw9wgXv-74" vertex="1" connectable="0"><mxGeometry x="-0.0174" y="-1" relative="1" as="geometry"><mxPoint as="offset"/></mxGeometry></mxCell><mxCell id="u7qAn0A-TmPdgvw9wgXv-76" value="HFile" style="rounded=0;whiteSpace=wrap;html=1;verticalAlign=middle;fillColor=#76608a;strokeColor=#432D57;fontColor=#ffffff;" parent="kAMN1V5U5sNBwgowRGp8-1" vertex="1"><mxGeometry x="534" y="1095" width="226" height="30" as="geometry"/></mxCell><mxCell id="u7qAn0A-TmPdgvw9wgXv-80" value="&lt;font style=&quot;font-size: 12px&quot;&gt;HFile Compaction 操作：&lt;br&gt;&lt;br&gt;&lt;/font&gt;&lt;ul class=&quot;itemizedlist&quot; style=&quot;box-sizing: border-box ; margin-bottom: 0px ; margin-top: 0px ; font-family: &amp;#34;inter&amp;#34; , sans-serif ; padding-left: 2em ; color: rgb(33 , 37 , 41) ; background-color: rgb(255 , 255 , 255)&quot;&gt;&lt;li class=&quot;listitem&quot; style=&quot;box-sizing: border-box ; padding: 0.15em 1em 0.15em 0px ; list-style: inherit&quot;&gt;Minor 小范围的HFile文件合并&lt;/li&gt;&lt;li class=&quot;listitem&quot; style=&quot;box-sizing: border-box ; padding: 0.15em 1em 0.15em 0px ; list-style: inherit&quot;&gt;Major 一个列族中将所有的HFile文件合并,并清理一些TTL过期/版本过旧以及被标记删除的数据&lt;/li&gt;&lt;/ul&gt;" style="shape=document;whiteSpace=wrap;html=1;boundedLbl=1;size=0.125;align=left;verticalAlign=top;" parent="kAMN1V5U5sNBwgowRGp8-1" vertex="1"><mxGeometry x="830" y="927.5" width="220" height="132.5" as="geometry"/></mxCell></root></mxGraphModel></diagram><diagram id="LRt1dFMDyex_SO5Tj_2k" name="读取原理"><mxGraphModel dx="1382" dy="785" grid="1" gridSize="10" guides="1" tooltips="1" connect="1" arrows="1" fold="1" page="1" pageScale="1" pageWidth="850" pageHeight="1100" math="0" shadow="0"><root><mxCell id="aRx42CVKUlGtfPnaEftv-0"/><mxCell id="aRx42CVKUlGtfPnaEftv-1" parent="aRx42CVKUlGtfPnaEftv-0"/></root></mxGraphModel></diagram></mxfile>